<?xml version="1.0" encoding="UTF-8"?>
<svg version="1.1" xmlns="http://www.w3.org/2000/svg" width="128" height="128">
<path d="M0 0 C1.02448242 0.57862793 2.04896484 1.15725586 3.10449219 1.75341797 C4.25046875 2.39537109 5.39644531 3.03732422 6.57714844 3.69873047 C7.1657666 4.03582031 7.75438477 4.37291016 8.36083984 4.72021484 C10.12746697 5.7319184 11.90192686 6.72843202 13.67871094 7.72216797 C34.93065362 19.66981071 34.93065362 19.66981071 37.90136719 24.62060547 C38.4333473 29.40842647 38.62645733 31.48463092 36.02636719 35.55810547 C32.80336027 38.68631807 30.24619025 39.18185074 25.73242188 39.125 C19.46581963 38.00851154 13.96671154 34.22260025 8.52636719 31.05810547 C7.26430013 30.34482669 6.00128339 29.63322556 4.73730469 28.92333984 C1.09803138 26.86764798 -2.50600395 24.75658012 -6.09863281 22.62060547 C-7.18563477 21.97752441 -8.27263672 21.33444336 -9.39257812 20.671875 C-10.3809668 20.06843262 -11.36935547 19.46499023 -12.38769531 18.84326172 C-13.25346191 18.31611572 -14.11922852 17.78896973 -15.01123047 17.24584961 C-17.25347385 15.50004678 -18.12288009 14.26403253 -19.09863281 11.62060547 C-19.31311412 8.4968777 -18.96674893 5.62860016 -18.09863281 2.62060547 C-12.61848466 -3.14797153 -7.08623259 -3.15452365 0 0 Z " fill="#57585A" transform="translate(90.0986328125,35.37939453125)"/>
<path d="M0 0 C4.63830234 1.94423408 8.9243134 4.45143053 13.25 7 C14.38824219 7.64839844 15.52648437 8.29679687 16.69921875 8.96484375 C19.56656207 10.60844009 22.41735348 12.27554098 25.25708008 13.96630859 C27.06070506 15.03600297 28.87302388 16.08999853 30.68554688 17.14453125 C31.86899755 17.84549727 33.05195776 18.54729214 34.234375 19.25 C35.29366211 19.87390625 36.35294922 20.4978125 37.44433594 21.140625 C40.00592255 23.00430896 40.99264942 24.04500393 42 27 C42.31161673 31.53841795 41.8480057 35.00234624 38.875 38.5 C35.43776928 40.29333777 32.8680431 40.74213046 29 41 C26.09765625 40.05859375 26.09765625 40.05859375 23.0625 38.4375 C22.49474854 38.13739014 21.92699707 37.83728027 21.34204102 37.52807617 C19.21046603 36.38148692 17.1049569 35.1947988 15 34 C14.04061523 33.45698242 13.08123047 32.91396484 12.09277344 32.35449219 C6.79162124 29.33812186 1.50773537 26.29182348 -3.75390625 23.20703125 C-5.08917358 22.42549683 -5.08917358 22.42549683 -6.45141602 21.62817383 C-13.40805124 17.18389753 -13.40805124 17.18389753 -15 14 C-15.5811138 6.91041162 -15.5811138 6.91041162 -13.125 3.0625 C-9.22082738 -0.72684401 -5.21746045 -0.88619286 0 0 Z " fill="#56575A" transform="translate(15,54)"/>
<path d="M0 0 C2.39177395 1.25955688 4.69088086 2.54364069 7 3.9375 C10.90156904 6.26760373 14.70983737 8.44806617 19 10 C13.61271869 14.49062855 7.71993456 17.75734386 1.625 21.1875 C0.51382813 21.82880859 -0.59734375 22.47011719 -1.7421875 23.13085938 C-2.825 23.74123047 -3.9078125 24.35160156 -5.0234375 24.98046875 C-6.49176025 25.81421021 -6.49176025 25.81421021 -7.98974609 26.66479492 C-12.6315118 28.72366083 -16.40721385 29.55134905 -21.25 27.875 C-24.31601258 25.78453688 -25.57167664 24.41210581 -27 21 C-27.59224831 16.26201349 -26.89393404 13.75992187 -24 10 C-21.01889225 7.78230108 -17.8533539 5.95730897 -14.625 4.125 C-13.34882812 3.35929687 -13.34882812 3.35929687 -12.046875 2.578125 C-11.21929687 2.10117188 -10.39171875 1.62421875 -9.5390625 1.1328125 C-8.41298584 0.48143311 -8.41298584 0.48143311 -7.26416016 -0.18310547 C-4.40476932 -1.21475543 -2.88007185 -0.8832568 0 0 Z " fill="#56575A" transform="translate(98,66)"/>
<path d="M0 0 C2.875 1.5 2.875 1.5 5 4 C6.22727491 8.05303752 6.59862478 11.41645838 5.0859375 15.41796875 C1.93161657 19.32247462 -2.04812186 21.4192043 -6.375 23.875 C-7.22578125 24.38546875 -8.0765625 24.8959375 -8.953125 25.421875 C-9.78070313 25.89882813 -10.60828125 26.37578125 -11.4609375 26.8671875 C-12.58701416 27.51856689 -12.58701416 27.51856689 -13.73583984 28.18310547 C-16.59523068 29.21475543 -18.11992815 28.8832568 -21 28 C-23.39177395 26.74044312 -25.69088086 25.45635931 -28 24.0625 C-31.90156904 21.73239627 -35.70983737 19.55193383 -40 18 C-36.54951882 15.11196857 -33.07546918 12.7735031 -29.1484375 10.58203125 C-28.05015625 9.96779297 -26.951875 9.35355469 -25.8203125 8.72070312 C-24.68335938 8.09099609 -23.54640625 7.46128906 -22.375 6.8125 C-21.2303125 6.17119141 -20.085625 5.52988281 -18.90625 4.86914062 C-7.24881757 -1.62473497 -7.24881757 -1.62473497 0 0 Z " fill="#56575A" transform="translate(51,34)"/>
</svg>
