<?xml version="1.0" encoding="UTF-8"?>
<svg xmlns="http://www.w3.org/2000/svg" width="217" height="52" viewBox="0 0 217 52" fill="none">
  <path fill-rule="evenodd" clip-rule="evenodd" d="M0 31.3668H95.1754V0H0V31.3668Z" fill="#FC1A70"></path>
  <path fill-rule="evenodd" clip-rule="evenodd" d="M14.2394 15.0299C15.8144 14.6184 16.8283 13.7411 16.8283 12.2196C16.8283 10.2325 15.0902 8.97974 12.8996 8.97974H6.85278V21.5097H13.28C15.5068 21.5097 17.118 20.1138 17.118 18.055C17.118 16.3007 15.9593 15.3699 14.2394 15.0299ZM10.3469 11.7362H11.9402C12.9179 11.7362 13.3886 12.1122 13.3886 12.7925C13.3886 13.5085 12.8455 13.8485 11.8316 13.8485H10.3469V11.7362ZM11.9402 18.7353H10.3469V16.4439H12.1392C13.1714 16.4439 13.6783 16.802 13.6783 17.536C13.6783 18.3237 13.0807 18.7353 11.9402 18.7353ZM23.708 12.1122C20.7932 12.1122 18.6023 13.9917 18.6023 16.8916C18.6023 19.8451 20.7932 21.7426 23.708 21.7426C26.6228 21.7426 28.7954 19.8451 28.7954 16.8916C28.7954 13.9917 26.6228 12.1122 23.708 12.1122ZM23.69 14.7258C24.8485 14.7258 25.5909 15.567 25.5909 16.8916C25.5909 18.2521 24.8485 19.1291 23.69 19.1291C22.5493 19.1291 21.8071 18.2521 21.8071 16.8916C21.8071 15.567 22.5493 14.7258 23.69 14.7258ZM37.2322 18.8965V8.97974H31.0764V11.593H34.0819V18.8965H30.497V21.5097H40.9798V18.8965H37.2322ZM47.606 12.1122C44.6909 12.1122 42.5003 13.9917 42.5003 16.8916C42.5003 19.8451 44.6909 21.7426 47.606 21.7426C50.5208 21.7426 52.6934 19.8451 52.6934 16.8916C52.6934 13.9917 50.5208 12.1122 47.606 12.1122ZM47.5878 14.7258C48.7465 14.7258 49.4887 15.567 49.4887 16.8916C49.4887 18.2521 48.7465 19.1291 47.5878 19.1291C46.4473 19.1291 45.7048 18.2521 45.7048 16.8916C45.7048 15.567 46.4473 14.7258 47.5878 14.7258ZM61.2747 12.3448V13.2756H61.2567C60.8584 12.7028 59.9532 12.1122 58.5589 12.1122C56.1511 12.1122 54.4854 13.8665 54.4854 16.623C54.4854 19.3797 56.1331 21.1517 58.5589 21.1517C59.9349 21.1517 60.8764 20.5611 61.2567 19.9883H61.2747V21.5813C61.293 22.369 60.5325 22.906 59.5911 22.906C58.722 22.906 58.0158 22.4586 57.835 21.671H54.6302C54.8658 24.1771 57.0384 25.3405 59.5366 25.3405C62.4697 25.3405 64.443 23.7294 64.443 21.3307V12.3448H61.2747ZM59.5187 18.5385C58.4141 18.5385 57.6902 17.7867 57.6902 16.623C57.6902 15.4773 58.4141 14.7258 59.5187 14.7258C60.6229 14.7258 61.3292 15.4057 61.3292 16.4797V16.5872C61.3109 17.7686 60.605 18.5385 59.5187 18.5385ZM72.9342 12.1122C71.522 12.1122 70.5081 12.5954 69.9287 13.7053V12.3448H66.7604V21.5097H69.9287V16.9632C69.9287 15.4953 70.7433 14.9048 71.703 14.9048C72.5176 14.9048 73.1152 15.5489 73.1152 16.6588V21.5097H76.2835V15.746C76.2835 13.6159 75.0523 12.1122 72.9342 12.1122ZM82.5838 21.7426C83.6881 21.7426 84.6296 21.3307 85.1183 20.4537H85.1545V21.5097H88.323V12.3448H85.1545V13.2756H85.1365C84.6113 12.3806 83.5612 12.1122 82.638 12.1122C80.1577 12.1122 78.2748 14.0097 78.2748 16.8916C78.2748 19.7915 80.1939 21.7426 82.5838 21.7426ZM83.3439 14.7258C84.4847 14.7258 85.2631 15.5489 85.2631 16.82V16.9274C85.2631 18.2698 84.4847 19.1291 83.3439 19.1291C82.2035 19.1291 81.4792 18.2698 81.4792 16.9094C81.4792 15.5847 82.1673 14.7258 83.3439 14.7258Z" fill="#282923"></path>
  <path fill-rule="evenodd" clip-rule="evenodd" d="M95.1755 41.6834H169.412V10.3163H95.1755V41.6834Z" fill="#A4E400"></path>
  <path fill-rule="evenodd" clip-rule="evenodd" d="M114.746 22.572V19.6185H104.426V32.1488H107.92V27.8349H114.33V24.8811H107.92V22.572H114.746ZM121.716 28.4612C121.716 26.5818 121.952 25.6329 126.315 25.9374V22.751C123.726 22.751 122.386 23.4313 121.716 24.6127V22.9836H116.719V25.5971H118.548V29.5353H116.719V32.1488H125.301V29.5353H121.716V28.4612ZM133.339 22.751C130.424 22.751 128.234 24.6305 128.234 27.5304C128.234 30.4839 130.424 32.3814 133.339 32.3814C136.254 32.3814 138.427 30.4839 138.427 27.5304C138.427 24.6305 136.254 22.751 133.339 22.751ZM133.321 25.3646C134.48 25.3646 135.222 26.2057 135.222 27.5304C135.222 28.8909 134.48 29.7679 133.321 29.7679C132.181 29.7679 131.438 28.8909 131.438 27.5304C131.438 26.2057 132.181 25.3646 133.321 25.3646ZM146.718 22.751C145.306 22.751 144.292 23.2342 143.713 24.3441V22.9836H140.545V32.1488H143.713V27.602C143.713 26.1341 144.528 25.5436 145.487 25.5436C146.302 25.5436 146.899 26.188 146.899 27.2978V32.1488H150.068V26.3848C150.068 24.2547 148.836 22.751 146.718 22.751ZM162.56 25.5971V22.9836H157.472V20.2091H154.304V20.9609C154.304 22.3753 153.978 22.9836 152.801 22.9836H151.661V25.5971H154.304V28.658C154.304 30.7345 156.241 32.3814 159.084 32.3814C159.935 32.3814 160.46 32.3278 161.962 31.8444V29.0876C160.424 29.8037 159.935 29.8037 159.482 29.8037C158.178 29.8037 157.472 29.3563 157.472 28.4077V25.5971H162.56Z" fill="#282923"></path>
  <path fill-rule="evenodd" clip-rule="evenodd" d="M169.412 52H217V20.6329H169.412V52Z" fill="white"></path>
  <path fill-rule="evenodd" clip-rule="evenodd" d="M186.141 33.2109V30.2574H176.546V42.7877H186.141V39.834H180.04V37.9903H185.526V35.0368H180.04V33.2109H186.141ZM194.759 33.3899C193.347 33.3899 192.333 33.8731 191.753 34.983V33.6225H188.585V42.7877H191.753V38.2409C191.753 36.7731 192.568 36.1825 193.528 36.1825C194.342 36.1825 194.94 36.8269 194.94 37.9368V42.7877H198.108V37.0237C198.108 34.8936 196.877 33.3899 194.759 33.3899ZM204.228 43.0203C205.332 43.0203 206.273 42.6087 206.943 41.7315H206.979V42.7877H210.148V30.2574H206.979V34.5534H206.961C206.255 33.6583 205.205 33.3899 204.282 33.3899C201.801 33.3899 200.1 35.2874 200.1 38.1693C200.1 41.0693 201.838 43.0203 204.228 43.0203ZM205.169 36.0035C206.309 36.0035 207.088 36.8269 207.088 38.0977V38.2051C207.088 39.5475 206.309 40.4068 205.169 40.4068C204.028 40.4068 203.304 39.5475 203.304 38.1874C203.304 36.8627 203.992 36.0035 205.169 36.0035Z" fill="#282923"></path>
</svg>
