<?xml version="1.0" standalone="no"?>
<!DOCTYPE svg PUBLIC "-//W3C//DTD SVG 20010904//EN" "http://www.w3.org/TR/2001/REC-SVG-20010904/DTD/svg10.dtd">
<svg version="1.0" xmlns="http://www.w3.org/2000/svg" width="214.000000pt" height="214.000000pt"
    viewBox="0 0 214.000000 214.000000" preserveAspectRatio="xMidYMid meet">

    <g transform="translate(0.000000,214.000000) scale(0.100000,-0.100000)" fill="#243F67" stroke="none">
        <path d="M1212 1959 c-36 -11 -180 -141 -192 -174 -15 -40 47 -115 95 -115 13
0 42 16 65 35 23 19 50 35 59 35 22 0 59 -28 141 -107 94 -91 151 -112 210
-78 43 24 51 19 33 -22 -20 -49 -19 -108 3 -141 10 -15 53 -63 96 -107 92 -95
98 -116 43 -176 -19 -22 -35 -49 -35 -60 0 -29 72 -99 101 -99 16 0 49 26 104
83 67 67 84 91 94 130 22 91 -10 157 -146 299 -46 47 -83 92 -83 100 0 7 9 33
20 57 11 24 20 47 20 52 0 5 -19 30 -41 54 -45 49 -74 56 -119 30 -48 -27 -66
-19 -168 76 -53 50 -114 100 -135 111 -46 23 -120 31 -165 17z" />
        <path d="M634 1407 c-63 -64 -85 -94 -94 -127 -24 -89 6 -154 130 -285 77 -80
90 -99 90 -127 0 -18 -7 -42 -15 -52 -24 -32 -17 -60 27 -104 44 -45 74 -52
118 -27 49 28 67 19 168 -78 102 -98 150 -127 218 -135 68 -7 112 14 197 96
92 90 96 109 39 165 -21 20 -48 37 -60 37 -12 0 -39 -16 -61 -35 -61 -56 -81
-50 -181 50 -106 107 -146 125 -219 101 -27 -9 -52 -16 -55 -16 -3 0 2 16 10
35 33 80 17 124 -85 229 -115 118 -117 128 -54 199 18 20 33 42 33 48 0 39
-68 109 -106 109 -10 0 -55 -37 -100 -83z" />
        <path fill="#0690BF" d="M1050 1283 c-44 -18 -55 -78 -20 -113 41 -41 120 -10 120 47 0 46
-56 83 -100 66z" />
        <path fill="#0690BF" d="M1235 1265 c-22 -21 -26 -32 -21 -58 8 -40 30 -57 72 -57 38 0 64 29
64 70 0 36 -19 59 -57 66 -26 5 -37 1 -58 -21z" />
        <path fill="#0690BF" d="M1452 1283 c-19 -8 -43 -60 -35 -80 28 -80 143 -65 143 18 0 46 -61
81 -108 62z" />
        <path d="M328 586 c-49 -13 -63 -21 -116 -70 -57 -52 -77 -101 -77 -186 0 -90
22 -138 89 -197 69 -61 151 -77 254 -51 69 17 145 96 168 173 30 104 4 197
-75 268 -71 64 -159 87 -243 63z m186 -258 c40 -35 43 -78 11 -116 -32 -39
-79 -43 -119 -11 -21 16 -26 29 -26 64 0 35 5 48 26 64 35 27 77 27 108 -1z" />
    </g>
</svg>